<?xml version="1.0" encoding="UTF-8"?>
<svg version="1.1" xmlns="http://www.w3.org/2000/svg" width="476" height="476">
<path d="M0 0 C0.75732422 0.43997314 1.51464844 0.87994629 2.29492188 1.33325195 C3.95022019 2.29767928 5.60078546 3.27026597 7.24707031 4.25 C9.97498191 5.87194669 12.71593576 7.46966297 15.4609375 9.0625 C19.49176355 11.40337089 23.51731922 13.75293415 27.5390625 16.109375 C37.19854457 21.76326819 46.90299457 27.33931397 56.6015625 32.92578125 C59.8397516 34.7921838 63.07639438 36.66123763 66.3125 38.53125 C76.93377862 44.66759454 87.56572963 50.78412963 98.22131348 56.86065674 C108.49347237 62.71862835 118.73529113 68.62539848 128.94238281 74.59619141 C136.19740533 78.83890166 143.46876215 83.0524461 150.75 87.25 C151.82096924 87.86762207 152.89193848 88.48524414 153.99536133 89.12158203 C159.02549707 92.0212497 164.05735376 94.91787747 169.09237671 97.80905151 C175.11755824 101.26889318 181.13573795 104.74041935 187.14404297 108.22949219 C188.82814479 109.20568709 190.51425429 110.17843924 192.20361328 111.14550781 C194.06021671 112.20932964 195.90665938 113.28841932 197.75 114.375 C198.67554688 114.91253906 199.60109375 115.45007813 200.5546875 116.00390625 C204.28020989 118.9078067 206.39193665 122.36330996 207.875 126.8125 C208.29780764 133.26031656 207.79085108 137.35397664 203.46875 142.48046875 C199.48986697 146.4311993 196.02220955 147.5799491 190.5 148.09765625 C182.58220785 147.23753895 175.11118224 141.74119968 168.3125 137.9375 C167.71752716 137.60580811 167.12255432 137.27411621 166.509552 136.93237305 C156.73119678 131.47960218 147.0673616 125.8475153 137.44921875 120.1171875 C128.0967536 114.55283 118.64480342 109.15845349 109.21142578 103.73291016 C105.86710731 101.80795705 102.52496653 99.87927999 99.18359375 97.94921875 C89.2589979 92.21653173 79.33026695 86.49178835 69.375 80.8125 C51.76245594 70.76296961 34.20730817 60.61438003 16.7019043 50.37939453 C15.31225464 49.56704346 15.31225464 49.56704346 13.89453125 48.73828125 C13.09120361 48.26817627 12.28787598 47.79807129 11.46020508 47.3137207 C9.38239447 46.10714242 7.29995542 44.91004101 5.21342468 43.71867371 C4.11174454 43.08963638 3.01006439 42.46059906 1.875 41.8125 C1.87353344 42.98109841 1.87206688 44.14969683 1.87055588 45.35370731 C1.83484623 73.10007119 1.77859402 100.84633161 1.69707905 128.59260032 C1.68706171 132.00842908 1.67721756 135.42425832 1.66748047 138.84008789 C1.6655391 139.52011189 1.66359772 140.20013588 1.66159752 140.90076666 C1.63058482 151.90852739 1.61359892 162.91626727 1.60180578 173.92406345 C1.58939042 185.22088815 1.56158333 196.51760422 1.52038693 207.81436676 C1.49773766 214.15885491 1.48209141 220.50318702 1.48311615 226.84771919 C1.4838607 232.81903008 1.46599197 238.78999557 1.43383217 244.76121712 C1.42531158 246.95295131 1.42359782 249.14472414 1.42919731 251.33646774 C1.435826 254.32970189 1.4179429 257.32183352 1.39398193 260.31495667 C1.40174235 261.18170299 1.40950277 262.04844931 1.41749835 262.94146067 C1.33578475 268.71009647 0.19452067 272.06398479 -3.125 276.8125 C-7.69708851 280.85295031 -12.13551654 282.05614001 -18.125 281.8125 C-22.79001551 280.94303474 -25.5630567 279.35001098 -29 276.0625 C-33.35488834 269.40208254 -33.4159539 263.08164843 -33.38569641 255.35049438 C-33.38952196 254.30955765 -33.39334751 253.26862092 -33.39728898 252.19614065 C-33.40759183 248.71485591 -33.40363193 245.23373694 -33.3996582 241.75244141 C-33.40400617 239.25372668 -33.40918961 236.75501329 -33.41514587 234.25630188 C-33.4271475 228.17752746 -33.42968835 222.09881798 -33.42734561 216.02003767 C-33.42556064 211.07748487 -33.42731594 206.13494546 -33.43157005 201.19239426 C-33.43216524 200.48822408 -33.43276043 199.7840539 -33.43337366 199.05854522 C-33.43458544 197.62789254 -33.43579958 196.19723986 -33.43701603 194.76658718 C-33.4478861 181.35747504 -33.44573164 167.94838806 -33.43963119 154.5392745 C-33.43446285 142.28200045 -33.44571619 130.02480589 -33.46472941 117.76754756 C-33.48411854 105.17102674 -33.4923619 92.57454351 -33.48860615 79.97800767 C-33.4866957 72.9103365 -33.48916648 65.84273298 -33.50332069 58.77507401 C-33.51649774 52.12826924 -33.51395985 45.48159716 -33.50090981 38.83478355 C-33.49854331 36.39714568 -33.5012813 33.95949662 -33.50953293 31.52187157 C-33.51999552 28.19055419 -33.51190304 24.8597712 -33.4992218 21.5284729 C-33.50659609 20.5672715 -33.51397037 19.60607009 -33.52156812 18.61574137 C-33.47092783 12.27832311 -33.00985894 5.31471408 -28.81469423 0.22179091 C-19.89513284 -7.77503399 -9.42803847 -5.73004841 0 0 Z " fill="#000000" transform="translate(201.125,156.1875)"/>
<path d="M0 0 C2.48948883 1.32335806 4.93660179 2.70999397 7.375 4.125 C7.97957031 4.47320801 8.58414063 4.82141602 9.20703125 5.18017578 C12.59270141 7.13940965 15.95729354 9.13236597 19.31640625 11.13671875 C25.47658351 14.79765998 31.71024745 18.32997526 37.9375 21.875 C47.80475401 27.49686335 57.6377037 33.17314498 67.44018555 38.9074707 C77.96473925 45.06196148 88.52823254 51.14837229 99.09277344 57.23388672 C105.60371257 60.98528024 112.11163194 64.74190994 118.62011719 68.49755859 C124.06085336 71.63682246 129.50231477 74.77481497 134.9453125 77.91015625 C146.41500238 84.51888232 157.87745851 91.1390272 169.29467773 97.83813477 C174.06539632 100.63282543 178.84763832 103.402173 183.66915894 106.1081543 C186.0578425 107.44913009 188.4418496 108.79831867 190.82592773 110.14746094 C192.51650232 111.09910731 194.21422354 112.03802269 195.91210938 112.9765625 C202.32992132 116.61185461 207.48786741 119.56442957 210.40625 126.6171875 C211.55962169 132.48016023 211.72892491 136.98964612 208.375 142.125 C204.13968107 146.69914445 200.73967865 148.86225793 194.4375 149.5625 C187.91653726 149.43729752 182.90233558 146.29634941 177.375 143.125 C176.71274414 142.74939941 176.05048828 142.37379883 175.36816406 141.98681641 C170.5790516 139.2646875 165.82025977 136.49238337 161.06884766 133.70507812 C156.32137217 130.92044324 151.56638132 128.14867974 146.8125 125.375 C145.80783691 124.788396 144.80317383 124.20179199 143.76806641 123.59741211 C133.08692873 117.36464023 122.37314737 111.18882739 111.65722656 105.01611328 C106.22840058 101.88819852 100.80180719 98.75641552 95.375 95.625 C93.20834417 94.37498121 91.0416775 93.12498122 88.875 91.875 C46.625 67.5 46.625 67.5 4.375 43.125 C4.37960896 44.29267662 4.38421793 45.46035324 4.38896656 46.663414 C4.49730038 74.39357208 4.57972481 102.12370893 4.63032665 129.85403499 C4.63658004 133.26857578 4.64305166 136.68311613 4.6496582 140.09765625 C4.65096976 140.77741793 4.65228131 141.45717962 4.6536326 142.15754014 C4.67537787 153.15823315 4.71479447 164.15879525 4.76076398 175.15941066 C4.80755323 186.45052103 4.83492643 197.7415661 4.84544247 209.03277826 C4.85196176 215.37347915 4.86728762 221.71388333 4.90365028 228.05448914 C4.93760325 234.02330636 4.94805411 239.99170481 4.94053841 245.96060944 C4.94191324 248.1503502 4.9518495 250.34010506 4.97102737 252.52976227 C4.99595397 255.52275477 4.98990601 258.51417219 4.97627258 261.50720215 C4.99083679 262.37103563 5.005401 263.23486911 5.02040654 264.12487936 C4.94536648 270.23152654 3.32070002 274.42416203 -0.625 279.125 C-4.8387167 282.68236138 -8.85299449 283.78930916 -14.3515625 283.5078125 C-19.89692633 282.57405708 -23.57222087 280.44772249 -27.0625 276.0625 C-28.99833465 272.42313085 -29.74995896 269.7794064 -29.75922108 265.71768665 C-29.76367892 264.81096425 -29.76813676 263.90424184 -29.77272969 262.970043 C-29.77254533 261.97259193 -29.77236097 260.97514085 -29.77217102 259.94746399 C-29.77584771 258.88882163 -29.7795244 257.83017927 -29.7833125 256.73945683 C-29.79436955 253.17436286 -29.79819661 249.60929802 -29.80200195 246.04418945 C-29.80826506 243.49518236 -29.81491172 240.94617619 -29.82191467 238.39717102 C-29.84115643 230.73498902 -29.85174503 223.07281213 -29.86064246 215.41061214 C-29.86502603 211.80192544 -29.87039267 208.19324021 -29.87563133 204.58455467 C-29.89264355 192.58761684 -29.90713747 180.59067992 -29.91438007 168.59373188 C-29.91628995 165.48053804 -29.91821029 162.3673442 -29.92016602 159.25415039 C-29.92064976 158.48038554 -29.9211335 157.70662069 -29.9216319 156.90940841 C-29.92993129 144.37636314 -29.95526667 131.84341335 -29.98774669 119.31040976 C-30.0208247 106.44169302 -30.03882952 93.57302478 -30.04202431 80.7042653 C-30.04418877 73.47947818 -30.05292778 66.25483028 -30.07848549 59.03008461 C-30.10247452 52.23309356 -30.10601353 45.43639627 -30.09572411 38.63935661 C-30.09522778 36.14485466 -30.10157648 33.65034052 -30.11528015 31.15587616 C-30.13294652 27.74943413 -30.12591777 24.34389659 -30.11274719 20.93745422 C-30.12371644 19.95115676 -30.13468568 18.96485929 -30.14598733 17.94867402 C-30.08911091 11.85225434 -29.12538103 7.20425295 -25.625 2.125 C-18.04460712 -5.08561762 -8.9713601 -4.40807313 0 0 Z " fill="#000000" transform="translate(126.625,36.875)"/>
<path d="M0 0 C7.91314522 4.57871377 11.96512472 15.03149852 16.30718994 22.72009277 C17.69913006 25.18453073 19.09876616 27.64457052 20.49786377 30.10494995 C21.22214432 31.37877118 21.94606052 32.65279964 22.6696167 33.92703247 C26.25365893 40.23723771 29.87185346 46.5275555 33.5 52.8125 C34.11746094 53.88250244 34.73492187 54.95250488 35.37109375 56.05493164 C39.49623479 63.19539046 43.6494003 70.31912439 47.8125 77.4375 C53.55027436 87.25025519 59.20450024 97.10945338 64.8347168 106.98413086 C69.40767483 115.00325604 74.0066437 123.00689679 78.625 131 C83.34940284 139.17835714 88.06219527 147.36310078 92.75 155.5625 C93.2562793 156.44736084 93.76255859 157.33222168 94.28417969 158.24389648 C94.74469727 159.05028564 95.20521484 159.8566748 95.6796875 160.6875 C96.08171387 161.39132812 96.48374023 162.09515625 96.89794922 162.8203125 C99.44331715 167.35897955 99.43067265 171.41481027 98.875 176.5625 C97.19105284 181.42215186 94.12491462 184.72922359 89.875 187.5625 C84.58354991 189.3263167 79.07176066 189.37060879 73.8125 187.375 C68.53091232 184.31126652 66.04419124 179.06484762 63.17578125 173.89111328 C61.66695653 171.19006782 60.11683487 168.51495885 58.5625 165.83984375 C55.65225539 160.82741181 52.75776128 155.8062 49.87158203 150.77987671 C46.35848172 144.66194573 42.83697278 138.54888523 39.3125 132.4375 C38.69173584 131.36089111 38.07097168 130.28428223 37.43139648 129.17504883 C33.26694645 121.95851456 29.07829129 114.75646945 24.875 107.5625 C14.01145791 88.96592577 3.2755144 70.29653863 -7.39233398 51.5871582 C-10.42402534 46.27371822 -13.464013 40.96590639 -16.54296875 35.6796875 C-17.05762695 34.79595459 -17.57228516 33.91222168 -18.10253906 33.00170898 C-19.04594423 31.38514163 -19.9917429 29.76996764 -20.94042969 28.15649414 C-24.22434162 22.53218228 -25.95600126 18.12858038 -25.125 11.5625 C-23.27837674 5.7271705 -20.60925857 2.47965881 -15.125 -0.4375 C-9.87075615 -2.18891462 -5.08073723 -2.14541687 0 0 Z " fill="#000000" transform="translate(254.125,255.4375)"/>
</svg>
